<mxfile host="app.diagrams.net" modified="2023-05-07T09:16:04.535Z" agent="Mozilla/5.0 (Windows NT 10.0; Win64; x64) AppleWebKit/537.36 (KHTML, like Gecko) Chrome/112.0.0.0 Safari/537.36" etag="RFsz836XWoawnYOqCS7W" version="21.2.3" type="device">
  <diagram name="Page-1" id="9f46799a-70d6-7492-0946-bef42562c5a5">
    <mxGraphModel dx="1173" dy="392" grid="1" gridSize="10" guides="1" tooltips="1" connect="1" arrows="1" fold="1" page="0" pageScale="1" pageWidth="1100" pageHeight="850" background="none" math="0" shadow="0">
      <root>
        <mxCell id="0" />
        <mxCell id="1" parent="0" />
        <mxCell id="nxPjtEtVOsGxW00TyzXj-108" value="Classname" style="swimlane;html=1;fontStyle=1;align=center;verticalAlign=top;childLayout=stackLayout;horizontal=1;startSize=26;horizontalStack=0;resizeParent=1;resizeLast=0;collapsible=1;marginBottom=0;swimlaneFillColor=#ffffff;rounded=0;shadow=0;comic=0;labelBackgroundColor=none;strokeWidth=1;fillColor=none;fontFamily=Verdana;fontSize=12" parent="1" vertex="1">
          <mxGeometry x="-250" y="80" width="160" height="200" as="geometry" />
        </mxCell>
        <mxCell id="nxPjtEtVOsGxW00TyzXj-109" value="+ field: type" style="text;html=1;strokeColor=none;fillColor=none;align=left;verticalAlign=top;spacingLeft=4;spacingRight=4;whiteSpace=wrap;overflow=hidden;rotatable=0;points=[[0,0.5],[1,0.5]];portConstraint=eastwest;" parent="nxPjtEtVOsGxW00TyzXj-108" vertex="1">
          <mxGeometry y="26" width="160" height="26" as="geometry" />
        </mxCell>
        <mxCell id="nxPjtEtVOsGxW00TyzXj-110" value="+ field: type" style="text;html=1;strokeColor=none;fillColor=none;align=left;verticalAlign=top;spacingLeft=4;spacingRight=4;whiteSpace=wrap;overflow=hidden;rotatable=0;points=[[0,0.5],[1,0.5]];portConstraint=eastwest;" parent="nxPjtEtVOsGxW00TyzXj-108" vertex="1">
          <mxGeometry y="52" width="160" height="26" as="geometry" />
        </mxCell>
        <mxCell id="nxPjtEtVOsGxW00TyzXj-111" value="+ field: type" style="text;html=1;strokeColor=none;fillColor=none;align=left;verticalAlign=top;spacingLeft=4;spacingRight=4;whiteSpace=wrap;overflow=hidden;rotatable=0;points=[[0,0.5],[1,0.5]];portConstraint=eastwest;" parent="nxPjtEtVOsGxW00TyzXj-108" vertex="1">
          <mxGeometry y="78" width="160" height="26" as="geometry" />
        </mxCell>
        <mxCell id="nxPjtEtVOsGxW00TyzXj-112" value="+ field: type" style="text;html=1;strokeColor=none;fillColor=none;align=left;verticalAlign=top;spacingLeft=4;spacingRight=4;whiteSpace=wrap;overflow=hidden;rotatable=0;points=[[0,0.5],[1,0.5]];portConstraint=eastwest;" parent="nxPjtEtVOsGxW00TyzXj-108" vertex="1">
          <mxGeometry y="104" width="160" height="26" as="geometry" />
        </mxCell>
        <mxCell id="nxPjtEtVOsGxW00TyzXj-115" value="" style="line;html=1;strokeWidth=1;fillColor=none;align=left;verticalAlign=middle;spacingTop=-1;spacingLeft=3;spacingRight=3;rotatable=0;labelPosition=right;points=[];portConstraint=eastwest;" parent="nxPjtEtVOsGxW00TyzXj-108" vertex="1">
          <mxGeometry y="130" width="160" height="8" as="geometry" />
        </mxCell>
        <mxCell id="nxPjtEtVOsGxW00TyzXj-116" value="+ method(type): type" style="text;html=1;strokeColor=none;fillColor=none;align=left;verticalAlign=top;spacingLeft=4;spacingRight=4;whiteSpace=wrap;overflow=hidden;rotatable=0;points=[[0,0.5],[1,0.5]];portConstraint=eastwest;" parent="nxPjtEtVOsGxW00TyzXj-108" vertex="1">
          <mxGeometry y="138" width="160" height="24" as="geometry" />
        </mxCell>
        <mxCell id="nxPjtEtVOsGxW00TyzXj-117" value="+ method(type): type" style="text;html=1;strokeColor=none;fillColor=none;align=left;verticalAlign=top;spacingLeft=4;spacingRight=4;whiteSpace=wrap;overflow=hidden;rotatable=0;points=[[0,0.5],[1,0.5]];portConstraint=eastwest;" parent="nxPjtEtVOsGxW00TyzXj-108" vertex="1">
          <mxGeometry y="162" width="160" height="26" as="geometry" />
        </mxCell>
        <mxCell id="nxPjtEtVOsGxW00TyzXj-120" style="edgeStyle=orthogonalEdgeStyle;html=1;labelBackgroundColor=none;startFill=0;startSize=8;endArrow=diamondThin;endFill=0;endSize=16;fontFamily=Verdana;fontSize=12;elbow=vertical;" parent="1" edge="1">
          <mxGeometry relative="1" as="geometry">
            <mxPoint x="-250" y="40.00285714285724" as="sourcePoint" />
            <mxPoint x="-90" y="40" as="targetPoint" />
          </mxGeometry>
        </mxCell>
        <mxCell id="nxPjtEtVOsGxW00TyzXj-121" style="edgeStyle=orthogonalEdgeStyle;html=1;labelBackgroundColor=none;startFill=0;startSize=8;endArrow=open;endFill=0;endSize=16;fontFamily=Verdana;fontSize=12;dashed=1;" parent="1" edge="1">
          <mxGeometry relative="1" as="geometry">
            <mxPoint x="-250" y="60" as="sourcePoint" />
            <mxPoint x="-90" y="60" as="targetPoint" />
            <Array as="points">
              <mxPoint x="-250" y="60" />
              <mxPoint x="-250" y="60" />
            </Array>
          </mxGeometry>
        </mxCell>
        <mxCell id="PisStSjor8QuVtUlqD6H-13" value="User" style="swimlane;html=1;fontStyle=1;align=center;verticalAlign=top;childLayout=stackLayout;horizontal=1;startSize=26;horizontalStack=0;resizeParent=1;resizeLast=0;collapsible=1;marginBottom=0;swimlaneFillColor=#ffffff;rounded=0;shadow=0;comic=0;labelBackgroundColor=none;strokeWidth=1;fillColor=none;fontFamily=Verdana;fontSize=12" vertex="1" parent="1">
          <mxGeometry x="70" y="70" width="160" height="170" as="geometry" />
        </mxCell>
        <mxCell id="PisStSjor8QuVtUlqD6H-15" value="+ id: int" style="text;html=1;strokeColor=none;fillColor=none;align=left;verticalAlign=top;spacingLeft=4;spacingRight=4;whiteSpace=wrap;overflow=hidden;rotatable=0;points=[[0,0.5],[1,0.5]];portConstraint=eastwest;" vertex="1" parent="PisStSjor8QuVtUlqD6H-13">
          <mxGeometry y="26" width="160" height="26" as="geometry" />
        </mxCell>
        <mxCell id="PisStSjor8QuVtUlqD6H-14" value="+ name: string" style="text;html=1;strokeColor=none;fillColor=none;align=left;verticalAlign=top;spacingLeft=4;spacingRight=4;whiteSpace=wrap;overflow=hidden;rotatable=0;points=[[0,0.5],[1,0.5]];portConstraint=eastwest;" vertex="1" parent="PisStSjor8QuVtUlqD6H-13">
          <mxGeometry y="52" width="160" height="26" as="geometry" />
        </mxCell>
        <mxCell id="PisStSjor8QuVtUlqD6H-16" value="+ stats: UserStatistics" style="text;html=1;strokeColor=none;fillColor=none;align=left;verticalAlign=top;spacingLeft=4;spacingRight=4;whiteSpace=wrap;overflow=hidden;rotatable=0;points=[[0,0.5],[1,0.5]];portConstraint=eastwest;" vertex="1" parent="PisStSjor8QuVtUlqD6H-13">
          <mxGeometry y="78" width="160" height="26" as="geometry" />
        </mxCell>
        <mxCell id="PisStSjor8QuVtUlqD6H-18" value="" style="line;html=1;strokeWidth=1;fillColor=none;align=left;verticalAlign=middle;spacingTop=-1;spacingLeft=3;spacingRight=3;rotatable=0;labelPosition=right;points=[];portConstraint=eastwest;" vertex="1" parent="PisStSjor8QuVtUlqD6H-13">
          <mxGeometry y="104" width="160" height="8" as="geometry" />
        </mxCell>
        <mxCell id="PisStSjor8QuVtUlqD6H-55" value="+ Ctor &amp;amp; Dtor" style="text;html=1;strokeColor=none;fillColor=none;align=left;verticalAlign=top;spacingLeft=4;spacingRight=4;whiteSpace=wrap;overflow=hidden;rotatable=0;points=[[0,0.5],[1,0.5]];portConstraint=eastwest;" vertex="1" parent="PisStSjor8QuVtUlqD6H-13">
          <mxGeometry y="112" width="160" height="24" as="geometry" />
        </mxCell>
        <mxCell id="PisStSjor8QuVtUlqD6H-30" value="+ Getters &amp;amp; Setters" style="text;html=1;strokeColor=none;fillColor=none;align=left;verticalAlign=top;spacingLeft=4;spacingRight=4;whiteSpace=wrap;overflow=hidden;rotatable=0;points=[[0,0.5],[1,0.5]];portConstraint=eastwest;" vertex="1" parent="PisStSjor8QuVtUlqD6H-13">
          <mxGeometry y="136" width="160" height="24" as="geometry" />
        </mxCell>
        <mxCell id="PisStSjor8QuVtUlqD6H-21" value="UserStatistics" style="swimlane;html=1;fontStyle=1;align=center;verticalAlign=top;childLayout=stackLayout;horizontal=1;startSize=26;horizontalStack=0;resizeParent=1;resizeLast=0;collapsible=1;marginBottom=0;swimlaneFillColor=#ffffff;rounded=0;shadow=0;comic=0;labelBackgroundColor=none;strokeWidth=1;fillColor=none;fontFamily=Verdana;fontSize=12" vertex="1" parent="1">
          <mxGeometry x="70" y="290" width="160" height="190" as="geometry" />
        </mxCell>
        <mxCell id="PisStSjor8QuVtUlqD6H-22" value="+ gamesNum: int" style="text;html=1;strokeColor=none;fillColor=none;align=left;verticalAlign=top;spacingLeft=4;spacingRight=4;whiteSpace=wrap;overflow=hidden;rotatable=0;points=[[0,0.5],[1,0.5]];portConstraint=eastwest;" vertex="1" parent="PisStSjor8QuVtUlqD6H-21">
          <mxGeometry y="26" width="160" height="26" as="geometry" />
        </mxCell>
        <mxCell id="PisStSjor8QuVtUlqD6H-23" value="+ rightNum: int" style="text;html=1;strokeColor=none;fillColor=none;align=left;verticalAlign=top;spacingLeft=4;spacingRight=4;whiteSpace=wrap;overflow=hidden;rotatable=0;points=[[0,0.5],[1,0.5]];portConstraint=eastwest;" vertex="1" parent="PisStSjor8QuVtUlqD6H-21">
          <mxGeometry y="52" width="160" height="26" as="geometry" />
        </mxCell>
        <mxCell id="PisStSjor8QuVtUlqD6H-24" value="+ wrongNum: int" style="text;html=1;strokeColor=none;fillColor=none;align=left;verticalAlign=top;spacingLeft=4;spacingRight=4;whiteSpace=wrap;overflow=hidden;rotatable=0;points=[[0,0.5],[1,0.5]];portConstraint=eastwest;" vertex="1" parent="PisStSjor8QuVtUlqD6H-21">
          <mxGeometry y="78" width="160" height="26" as="geometry" />
        </mxCell>
        <mxCell id="PisStSjor8QuVtUlqD6H-25" value="+ avgTime: double" style="text;html=1;strokeColor=none;fillColor=none;align=left;verticalAlign=top;spacingLeft=4;spacingRight=4;whiteSpace=wrap;overflow=hidden;rotatable=0;points=[[0,0.5],[1,0.5]];portConstraint=eastwest;" vertex="1" parent="PisStSjor8QuVtUlqD6H-21">
          <mxGeometry y="104" width="160" height="26" as="geometry" />
        </mxCell>
        <mxCell id="PisStSjor8QuVtUlqD6H-26" value="" style="line;html=1;strokeWidth=1;fillColor=none;align=left;verticalAlign=middle;spacingTop=-1;spacingLeft=3;spacingRight=3;rotatable=0;labelPosition=right;points=[];portConstraint=eastwest;" vertex="1" parent="PisStSjor8QuVtUlqD6H-21">
          <mxGeometry y="130" width="160" height="8" as="geometry" />
        </mxCell>
        <mxCell id="PisStSjor8QuVtUlqD6H-56" value="+ Ctor &amp;amp; Dtor" style="text;html=1;strokeColor=none;fillColor=none;align=left;verticalAlign=top;spacingLeft=4;spacingRight=4;whiteSpace=wrap;overflow=hidden;rotatable=0;points=[[0,0.5],[1,0.5]];portConstraint=eastwest;" vertex="1" parent="PisStSjor8QuVtUlqD6H-21">
          <mxGeometry y="138" width="160" height="24" as="geometry" />
        </mxCell>
        <mxCell id="PisStSjor8QuVtUlqD6H-29" value="+ Getters &amp;amp; Setters" style="text;html=1;strokeColor=none;fillColor=none;align=left;verticalAlign=top;spacingLeft=4;spacingRight=4;whiteSpace=wrap;overflow=hidden;rotatable=0;points=[[0,0.5],[1,0.5]];portConstraint=eastwest;" vertex="1" parent="PisStSjor8QuVtUlqD6H-21">
          <mxGeometry y="162" width="160" height="24" as="geometry" />
        </mxCell>
        <mxCell id="PisStSjor8QuVtUlqD6H-31" style="edgeStyle=orthogonalEdgeStyle;html=1;labelBackgroundColor=none;startFill=0;startSize=8;endArrow=diamondThin;endFill=0;endSize=16;fontFamily=Verdana;fontSize=12;elbow=vertical;entryX=0;entryY=0.5;entryDx=0;entryDy=0;exitX=0;exitY=0;exitDx=0;exitDy=0;" edge="1" parent="1" source="PisStSjor8QuVtUlqD6H-21" target="PisStSjor8QuVtUlqD6H-16">
          <mxGeometry relative="1" as="geometry">
            <mxPoint x="50" y="290" as="sourcePoint" />
            <mxPoint x="20" y="160" as="targetPoint" />
            <Array as="points">
              <mxPoint x="21" y="290" />
              <mxPoint x="21" y="160" />
              <mxPoint x="50" y="160" />
              <mxPoint x="50" y="161" />
            </Array>
          </mxGeometry>
        </mxCell>
        <mxCell id="PisStSjor8QuVtUlqD6H-32" value="Server" style="swimlane;html=1;fontStyle=1;align=center;verticalAlign=top;childLayout=stackLayout;horizontal=1;startSize=26;horizontalStack=0;resizeParent=1;resizeLast=0;collapsible=1;marginBottom=0;swimlaneFillColor=#ffffff;rounded=0;shadow=0;comic=0;labelBackgroundColor=none;strokeWidth=1;fillColor=none;fontFamily=Verdana;fontSize=12" vertex="1" parent="1">
          <mxGeometry x="800" y="70" width="300" height="260" as="geometry" />
        </mxCell>
        <mxCell id="PisStSjor8QuVtUlqD6H-34" value="+ serverSocket: Socket" style="text;html=1;strokeColor=none;fillColor=none;align=left;verticalAlign=top;spacingLeft=4;spacingRight=4;whiteSpace=wrap;overflow=hidden;rotatable=0;points=[[0,0.5],[1,0.5]];portConstraint=eastwest;" vertex="1" parent="PisStSjor8QuVtUlqD6H-32">
          <mxGeometry y="26" width="300" height="26" as="geometry" />
        </mxCell>
        <mxCell id="PisStSjor8QuVtUlqD6H-33" value="+ dataAccess: UserDatabase" style="text;html=1;strokeColor=none;fillColor=none;align=left;verticalAlign=top;spacingLeft=4;spacingRight=4;whiteSpace=wrap;overflow=hidden;rotatable=0;points=[[0,0.5],[1,0.5]];portConstraint=eastwest;" vertex="1" parent="PisStSjor8QuVtUlqD6H-32">
          <mxGeometry y="52" width="300" height="26" as="geometry" />
        </mxCell>
        <mxCell id="PisStSjor8QuVtUlqD6H-35" value="+ sockMap: map&amp;lt;int, Socket&amp;gt;" style="text;html=1;strokeColor=none;fillColor=none;align=left;verticalAlign=top;spacingLeft=4;spacingRight=4;whiteSpace=wrap;overflow=hidden;rotatable=0;points=[[0,0.5],[1,0.5]];portConstraint=eastwest;" vertex="1" parent="PisStSjor8QuVtUlqD6H-32">
          <mxGeometry y="78" width="300" height="26" as="geometry" />
        </mxCell>
        <mxCell id="PisStSjor8QuVtUlqD6H-36" value="+ rooms: list&amp;lt;GameRoom&amp;gt;" style="text;html=1;strokeColor=none;fillColor=none;align=left;verticalAlign=top;spacingLeft=4;spacingRight=4;whiteSpace=wrap;overflow=hidden;rotatable=0;points=[[0,0.5],[1,0.5]];portConstraint=eastwest;" vertex="1" parent="PisStSjor8QuVtUlqD6H-32">
          <mxGeometry y="104" width="300" height="26" as="geometry" />
        </mxCell>
        <mxCell id="PisStSjor8QuVtUlqD6H-37" value="" style="line;html=1;strokeWidth=1;fillColor=none;align=left;verticalAlign=middle;spacingTop=-1;spacingLeft=3;spacingRight=3;rotatable=0;labelPosition=right;points=[];portConstraint=eastwest;" vertex="1" parent="PisStSjor8QuVtUlqD6H-32">
          <mxGeometry y="130" width="300" height="8" as="geometry" />
        </mxCell>
        <mxCell id="PisStSjor8QuVtUlqD6H-38" value="+ run(int port): void" style="text;html=1;strokeColor=none;fillColor=none;align=left;verticalAlign=top;spacingLeft=4;spacingRight=4;whiteSpace=wrap;overflow=hidden;rotatable=0;points=[[0,0.5],[1,0.5]];portConstraint=eastwest;" vertex="1" parent="PisStSjor8QuVtUlqD6H-32">
          <mxGeometry y="138" width="300" height="32" as="geometry" />
        </mxCell>
        <mxCell id="PisStSjor8QuVtUlqD6H-40" value="+ acceptClient(): void" style="text;html=1;strokeColor=none;fillColor=none;align=left;verticalAlign=top;spacingLeft=4;spacingRight=4;whiteSpace=wrap;overflow=hidden;rotatable=0;points=[[0,0.5],[1,0.5]];portConstraint=eastwest;" vertex="1" parent="PisStSjor8QuVtUlqD6H-32">
          <mxGeometry y="170" width="300" height="30" as="geometry" />
        </mxCell>
        <mxCell id="PisStSjor8QuVtUlqD6H-43" value="+ clientHandler(Socket): void" style="text;html=1;strokeColor=none;fillColor=none;align=left;verticalAlign=top;spacingLeft=4;spacingRight=4;whiteSpace=wrap;overflow=hidden;rotatable=0;points=[[0,0.5],[1,0.5]];portConstraint=eastwest;" vertex="1" parent="PisStSjor8QuVtUlqD6H-32">
          <mxGeometry y="200" width="300" height="30" as="geometry" />
        </mxCell>
        <mxCell id="PisStSjor8QuVtUlqD6H-135" value="+ sendData(Socket, TriviaProtocolMessage): void" style="text;html=1;strokeColor=none;fillColor=none;align=left;verticalAlign=top;spacingLeft=4;spacingRight=4;whiteSpace=wrap;overflow=hidden;rotatable=0;points=[[0,0.5],[1,0.5]];portConstraint=eastwest;" vertex="1" parent="PisStSjor8QuVtUlqD6H-32">
          <mxGeometry y="230" width="300" height="30" as="geometry" />
        </mxCell>
        <mxCell id="PisStSjor8QuVtUlqD6H-45" style="edgeStyle=orthogonalEdgeStyle;rounded=0;orthogonalLoop=1;jettySize=auto;html=1;" edge="1" parent="1" source="PisStSjor8QuVtUlqD6H-44">
          <mxGeometry relative="1" as="geometry">
            <mxPoint x="790" y="285" as="targetPoint" />
            <Array as="points">
              <mxPoint x="780" y="285" />
              <mxPoint x="780" y="285" />
            </Array>
          </mxGeometry>
        </mxCell>
        <mxCell id="PisStSjor8QuVtUlqD6H-44" value="thread function" style="text;html=1;strokeColor=none;fillColor=default;align=center;verticalAlign=middle;whiteSpace=wrap;rounded=0;" vertex="1" parent="1">
          <mxGeometry x="700" y="270" width="60" height="30" as="geometry" />
        </mxCell>
        <mxCell id="PisStSjor8QuVtUlqD6H-46" value="TriviaQuestion" style="swimlane;html=1;fontStyle=1;align=center;verticalAlign=top;childLayout=stackLayout;horizontal=1;startSize=26;horizontalStack=0;resizeParent=1;resizeLast=0;collapsible=1;marginBottom=0;swimlaneFillColor=#ffffff;rounded=0;shadow=0;comic=0;labelBackgroundColor=none;strokeWidth=1;fillColor=none;fontFamily=Verdana;fontSize=12" vertex="1" parent="1">
          <mxGeometry x="80.00000000000011" y="700" width="220" height="214" as="geometry" />
        </mxCell>
        <mxCell id="PisStSjor8QuVtUlqD6H-82" value="+ difficulty: TriviaDifficulty" style="text;html=1;strokeColor=none;fillColor=none;align=left;verticalAlign=top;spacingLeft=4;spacingRight=4;whiteSpace=wrap;overflow=hidden;rotatable=0;points=[[0,0.5],[1,0.5]];portConstraint=eastwest;" vertex="1" parent="PisStSjor8QuVtUlqD6H-46">
          <mxGeometry y="26" width="220" height="26" as="geometry" />
        </mxCell>
        <mxCell id="PisStSjor8QuVtUlqD6H-83" value="+ category: TriviaCategory" style="text;html=1;strokeColor=none;fillColor=none;align=left;verticalAlign=top;spacingLeft=4;spacingRight=4;whiteSpace=wrap;overflow=hidden;rotatable=0;points=[[0,0.5],[1,0.5]];portConstraint=eastwest;" vertex="1" parent="PisStSjor8QuVtUlqD6H-46">
          <mxGeometry y="52" width="220" height="26" as="geometry" />
        </mxCell>
        <mxCell id="PisStSjor8QuVtUlqD6H-47" value="+ question: string" style="text;html=1;strokeColor=none;fillColor=none;align=left;verticalAlign=top;spacingLeft=4;spacingRight=4;whiteSpace=wrap;overflow=hidden;rotatable=0;points=[[0,0.5],[1,0.5]];portConstraint=eastwest;" vertex="1" parent="PisStSjor8QuVtUlqD6H-46">
          <mxGeometry y="78" width="220" height="26" as="geometry" />
        </mxCell>
        <mxCell id="PisStSjor8QuVtUlqD6H-49" value="+ correctAnswer: string" style="text;html=1;strokeColor=none;fillColor=none;align=left;verticalAlign=top;spacingLeft=4;spacingRight=4;whiteSpace=wrap;overflow=hidden;rotatable=0;points=[[0,0.5],[1,0.5]];portConstraint=eastwest;" vertex="1" parent="PisStSjor8QuVtUlqD6H-46">
          <mxGeometry y="104" width="220" height="26" as="geometry" />
        </mxCell>
        <mxCell id="PisStSjor8QuVtUlqD6H-48" value="+ incorrectAnswers: list&amp;lt;string&amp;gt;[3]" style="text;html=1;strokeColor=none;fillColor=none;align=left;verticalAlign=top;spacingLeft=4;spacingRight=4;whiteSpace=wrap;overflow=hidden;rotatable=0;points=[[0,0.5],[1,0.5]];portConstraint=eastwest;" vertex="1" parent="PisStSjor8QuVtUlqD6H-46">
          <mxGeometry y="130" width="220" height="26" as="geometry" />
        </mxCell>
        <mxCell id="PisStSjor8QuVtUlqD6H-51" value="" style="line;html=1;strokeWidth=1;fillColor=none;align=left;verticalAlign=middle;spacingTop=-1;spacingLeft=3;spacingRight=3;rotatable=0;labelPosition=right;points=[];portConstraint=eastwest;" vertex="1" parent="PisStSjor8QuVtUlqD6H-46">
          <mxGeometry y="156" width="220" height="8" as="geometry" />
        </mxCell>
        <mxCell id="PisStSjor8QuVtUlqD6H-52" value="+ Ctor &amp;amp; Dtor" style="text;html=1;strokeColor=none;fillColor=none;align=left;verticalAlign=top;spacingLeft=4;spacingRight=4;whiteSpace=wrap;overflow=hidden;rotatable=0;points=[[0,0.5],[1,0.5]];portConstraint=eastwest;" vertex="1" parent="PisStSjor8QuVtUlqD6H-46">
          <mxGeometry y="164" width="220" height="24" as="geometry" />
        </mxCell>
        <mxCell id="PisStSjor8QuVtUlqD6H-53" value="+ Getters &amp;amp; Setters" style="text;html=1;strokeColor=none;fillColor=none;align=left;verticalAlign=top;spacingLeft=4;spacingRight=4;whiteSpace=wrap;overflow=hidden;rotatable=0;points=[[0,0.5],[1,0.5]];portConstraint=eastwest;" vertex="1" parent="PisStSjor8QuVtUlqD6H-46">
          <mxGeometry y="188" width="220" height="26" as="geometry" />
        </mxCell>
        <mxCell id="PisStSjor8QuVtUlqD6H-54" value="a dataclass representing a database entry of a user" style="text;html=1;strokeColor=none;fillColor=default;align=center;verticalAlign=middle;whiteSpace=wrap;rounded=0;" vertex="1" parent="1">
          <mxGeometry x="10" y="40" width="280" height="20" as="geometry" />
        </mxCell>
        <mxCell id="PisStSjor8QuVtUlqD6H-57" value="The Mighty Server Class" style="text;html=1;strokeColor=none;fillColor=default;align=center;verticalAlign=middle;whiteSpace=wrap;rounded=0;" vertex="1" parent="1">
          <mxGeometry x="815" y="40" width="210" height="20" as="geometry" />
        </mxCell>
        <mxCell id="PisStSjor8QuVtUlqD6H-59" value="QuestionFetcher" style="swimlane;html=1;fontStyle=1;align=center;verticalAlign=top;childLayout=stackLayout;horizontal=1;startSize=26;horizontalStack=0;resizeParent=1;resizeLast=0;collapsible=1;marginBottom=0;swimlaneFillColor=#ffffff;rounded=0;shadow=0;comic=0;labelBackgroundColor=none;strokeWidth=1;fillColor=none;fontFamily=Verdana;fontSize=12" vertex="1" parent="1">
          <mxGeometry x="-210" y="560" width="500" height="90" as="geometry" />
        </mxCell>
        <mxCell id="PisStSjor8QuVtUlqD6H-68" value="+ BASE_API_URL: string" style="text;html=1;strokeColor=none;fillColor=none;align=left;verticalAlign=top;spacingLeft=4;spacingRight=4;whiteSpace=wrap;overflow=hidden;rotatable=0;points=[[0,0.5],[1,0.5]];portConstraint=eastwest;" vertex="1" parent="PisStSjor8QuVtUlqD6H-59">
          <mxGeometry y="26" width="500" height="26" as="geometry" />
        </mxCell>
        <mxCell id="PisStSjor8QuVtUlqD6H-64" value="" style="line;html=1;strokeWidth=1;fillColor=none;align=left;verticalAlign=middle;spacingTop=-1;spacingLeft=3;spacingRight=3;rotatable=0;labelPosition=right;points=[];portConstraint=eastwest;" vertex="1" parent="PisStSjor8QuVtUlqD6H-59">
          <mxGeometry y="52" width="500" height="8" as="geometry" />
        </mxCell>
        <mxCell id="PisStSjor8QuVtUlqD6H-65" value="+ fetchQuestions(int amount, TriviaDifficulty, TriviaCategory): list&amp;lt;TriviaQuestion&amp;gt;[amount]" style="text;html=1;strokeColor=none;fillColor=none;align=left;verticalAlign=top;spacingLeft=4;spacingRight=4;whiteSpace=wrap;overflow=hidden;rotatable=0;points=[[0,0.5],[1,0.5]];portConstraint=eastwest;" vertex="1" parent="PisStSjor8QuVtUlqD6H-59">
          <mxGeometry y="60" width="500" height="24" as="geometry" />
        </mxCell>
        <mxCell id="PisStSjor8QuVtUlqD6H-67" value="a dataclass containing user&#39;s statistics" style="text;html=1;strokeColor=none;fillColor=default;align=center;verticalAlign=middle;whiteSpace=wrap;rounded=0;" vertex="1" parent="1">
          <mxGeometry x="40" y="260" width="220" height="20" as="geometry" />
        </mxCell>
        <mxCell id="PisStSjor8QuVtUlqD6H-69" style="edgeStyle=orthogonalEdgeStyle;rounded=0;orthogonalLoop=1;jettySize=auto;html=1;" edge="1" parent="1" source="PisStSjor8QuVtUlqD6H-70">
          <mxGeometry relative="1" as="geometry">
            <mxPoint x="-220" y="599" as="targetPoint" />
            <Array as="points">
              <mxPoint x="-240" y="599" />
              <mxPoint x="-240" y="599" />
            </Array>
          </mxGeometry>
        </mxCell>
        <mxCell id="PisStSjor8QuVtUlqD6H-70" value="static const" style="text;html=1;strokeColor=none;fillColor=default;align=center;verticalAlign=middle;whiteSpace=wrap;rounded=0;" vertex="1" parent="1">
          <mxGeometry x="-300" y="585" width="50" height="25" as="geometry" />
        </mxCell>
        <mxCell id="PisStSjor8QuVtUlqD6H-71" style="edgeStyle=orthogonalEdgeStyle;rounded=0;orthogonalLoop=1;jettySize=auto;html=1;" edge="1" parent="1" source="PisStSjor8QuVtUlqD6H-72">
          <mxGeometry relative="1" as="geometry">
            <mxPoint x="-220" y="639" as="targetPoint" />
            <Array as="points">
              <mxPoint x="-240" y="639" />
              <mxPoint x="-240" y="639" />
            </Array>
          </mxGeometry>
        </mxCell>
        <mxCell id="PisStSjor8QuVtUlqD6H-72" value="static&amp;nbsp;" style="text;html=1;strokeColor=none;fillColor=default;align=center;verticalAlign=middle;whiteSpace=wrap;rounded=0;" vertex="1" parent="1">
          <mxGeometry x="-300" y="625" width="50" height="25" as="geometry" />
        </mxCell>
        <mxCell id="PisStSjor8QuVtUlqD6H-81" style="edgeStyle=orthogonalEdgeStyle;html=1;labelBackgroundColor=none;startFill=0;startSize=8;endArrow=diamondThin;endFill=0;endSize=16;fontFamily=Verdana;fontSize=12;elbow=vertical;exitX=1;exitY=0;exitDx=0;exitDy=0;entryX=1;entryY=0.5;entryDx=0;entryDy=0;" edge="1" parent="1" source="PisStSjor8QuVtUlqD6H-46" target="PisStSjor8QuVtUlqD6H-65">
          <mxGeometry relative="1" as="geometry">
            <mxPoint x="-170" y="710.0028571428572" as="sourcePoint" />
            <mxPoint x="370.0000000000001" y="670" as="targetPoint" />
            <Array as="points">
              <mxPoint x="320.0000000000001" y="700" />
              <mxPoint x="320.0000000000001" y="632" />
            </Array>
          </mxGeometry>
        </mxCell>
        <mxCell id="PisStSjor8QuVtUlqD6H-84" value="Enum TriviaDifficulty" style="swimlane;html=1;fontStyle=1;align=center;verticalAlign=top;childLayout=stackLayout;horizontal=1;startSize=26;horizontalStack=0;resizeParent=1;resizeLast=0;collapsible=1;marginBottom=0;swimlaneFillColor=#ffffff;rounded=0;shadow=0;comic=0;labelBackgroundColor=none;strokeWidth=1;fillColor=none;fontFamily=Verdana;fontSize=12" vertex="1" parent="1">
          <mxGeometry x="-200" y="820" width="180" height="104" as="geometry" />
        </mxCell>
        <mxCell id="PisStSjor8QuVtUlqD6H-85" value="+ EASY: int = 0" style="text;html=1;strokeColor=none;fillColor=none;align=left;verticalAlign=top;spacingLeft=4;spacingRight=4;whiteSpace=wrap;overflow=hidden;rotatable=0;points=[[0,0.5],[1,0.5]];portConstraint=eastwest;" vertex="1" parent="PisStSjor8QuVtUlqD6H-84">
          <mxGeometry y="26" width="180" height="26" as="geometry" />
        </mxCell>
        <mxCell id="PisStSjor8QuVtUlqD6H-86" value="+ MEDIUM: int = 1" style="text;html=1;strokeColor=none;fillColor=none;align=left;verticalAlign=top;spacingLeft=4;spacingRight=4;whiteSpace=wrap;overflow=hidden;rotatable=0;points=[[0,0.5],[1,0.5]];portConstraint=eastwest;" vertex="1" parent="PisStSjor8QuVtUlqD6H-84">
          <mxGeometry y="52" width="180" height="26" as="geometry" />
        </mxCell>
        <mxCell id="PisStSjor8QuVtUlqD6H-87" value="+ HARD: int = 2" style="text;html=1;strokeColor=none;fillColor=none;align=left;verticalAlign=top;spacingLeft=4;spacingRight=4;whiteSpace=wrap;overflow=hidden;rotatable=0;points=[[0,0.5],[1,0.5]];portConstraint=eastwest;" vertex="1" parent="PisStSjor8QuVtUlqD6H-84">
          <mxGeometry y="78" width="180" height="26" as="geometry" />
        </mxCell>
        <mxCell id="PisStSjor8QuVtUlqD6H-93" style="edgeStyle=orthogonalEdgeStyle;html=1;labelBackgroundColor=none;startFill=0;startSize=8;endArrow=diamondThin;endFill=0;endSize=16;fontFamily=Verdana;fontSize=12;elbow=vertical;exitX=1;exitY=0;exitDx=0;exitDy=0;entryX=0;entryY=0.5;entryDx=0;entryDy=0;" edge="1" parent="1" source="PisStSjor8QuVtUlqD6H-84" target="PisStSjor8QuVtUlqD6H-82">
          <mxGeometry relative="1" as="geometry">
            <mxPoint x="-100" y="749.4428571428573" as="sourcePoint" />
            <mxPoint x="60.000000000000114" y="749.44" as="targetPoint" />
            <Array as="points">
              <mxPoint x="1.1368683772161603e-13" y="820" />
              <mxPoint x="1.1368683772161603e-13" y="739" />
            </Array>
          </mxGeometry>
        </mxCell>
        <mxCell id="PisStSjor8QuVtUlqD6H-94" value="Enum TriviaCategory" style="swimlane;html=1;fontStyle=1;align=center;verticalAlign=top;childLayout=stackLayout;horizontal=1;startSize=26;horizontalStack=0;resizeParent=1;resizeLast=0;collapsible=1;marginBottom=0;swimlaneFillColor=#ffffff;rounded=0;shadow=0;comic=0;labelBackgroundColor=none;strokeWidth=1;fillColor=none;fontFamily=Verdana;fontSize=12" vertex="1" parent="1">
          <mxGeometry x="-29.999999999999886" y="960" width="330" height="680" as="geometry" />
        </mxCell>
        <mxCell id="PisStSjor8QuVtUlqD6H-104" value="+ ANY: int = 0" style="text;html=1;strokeColor=none;fillColor=none;align=left;verticalAlign=top;spacingLeft=4;spacingRight=4;whiteSpace=wrap;overflow=hidden;rotatable=0;points=[[0,0.5],[1,0.5]];portConstraint=eastwest;" vertex="1" parent="PisStSjor8QuVtUlqD6H-94">
          <mxGeometry y="26" width="330" height="26" as="geometry" />
        </mxCell>
        <mxCell id="PisStSjor8QuVtUlqD6H-95" value="+ GENERAL_KNOWLEDGE: int = 9" style="text;html=1;strokeColor=none;fillColor=none;align=left;verticalAlign=top;spacingLeft=4;spacingRight=4;whiteSpace=wrap;overflow=hidden;rotatable=0;points=[[0,0.5],[1,0.5]];portConstraint=eastwest;horizontal=1;" vertex="1" parent="PisStSjor8QuVtUlqD6H-94">
          <mxGeometry y="52" width="330" height="26" as="geometry" />
        </mxCell>
        <mxCell id="PisStSjor8QuVtUlqD6H-96" value="+ ENTERTAINMENT_BOOKS: int = 10" style="text;html=1;strokeColor=none;fillColor=none;align=left;verticalAlign=top;spacingLeft=4;spacingRight=4;whiteSpace=wrap;overflow=hidden;rotatable=0;points=[[0,0.5],[1,0.5]];portConstraint=eastwest;" vertex="1" parent="PisStSjor8QuVtUlqD6H-94">
          <mxGeometry y="78" width="330" height="26" as="geometry" />
        </mxCell>
        <mxCell id="PisStSjor8QuVtUlqD6H-116" value="+ ENTERTAINMENT_FILM: int = 11" style="text;html=1;strokeColor=none;fillColor=none;align=left;verticalAlign=top;spacingLeft=4;spacingRight=4;whiteSpace=wrap;overflow=hidden;rotatable=0;points=[[0,0.5],[1,0.5]];portConstraint=eastwest;" vertex="1" parent="PisStSjor8QuVtUlqD6H-94">
          <mxGeometry y="104" width="330" height="26" as="geometry" />
        </mxCell>
        <mxCell id="PisStSjor8QuVtUlqD6H-111" value="+ ENTERTAINMENT_MUSIC: int = 12" style="text;html=1;strokeColor=none;fillColor=none;align=left;verticalAlign=top;spacingLeft=4;spacingRight=4;whiteSpace=wrap;overflow=hidden;rotatable=0;points=[[0,0.5],[1,0.5]];portConstraint=eastwest;" vertex="1" parent="PisStSjor8QuVtUlqD6H-94">
          <mxGeometry y="130" width="330" height="26" as="geometry" />
        </mxCell>
        <mxCell id="PisStSjor8QuVtUlqD6H-112" value="+ ENTERTAINMENT_MUSICALS_THEATRES: int = 13" style="text;html=1;strokeColor=none;fillColor=none;align=left;verticalAlign=top;spacingLeft=4;spacingRight=4;whiteSpace=wrap;overflow=hidden;rotatable=0;points=[[0,0.5],[1,0.5]];portConstraint=eastwest;" vertex="1" parent="PisStSjor8QuVtUlqD6H-94">
          <mxGeometry y="156" width="330" height="26" as="geometry" />
        </mxCell>
        <mxCell id="PisStSjor8QuVtUlqD6H-114" value="+ ENTERTAINMENT_TELEVISION: int = 14" style="text;html=1;strokeColor=none;fillColor=none;align=left;verticalAlign=top;spacingLeft=4;spacingRight=4;whiteSpace=wrap;overflow=hidden;rotatable=0;points=[[0,0.5],[1,0.5]];portConstraint=eastwest;" vertex="1" parent="PisStSjor8QuVtUlqD6H-94">
          <mxGeometry y="182" width="330" height="26" as="geometry" />
        </mxCell>
        <mxCell id="PisStSjor8QuVtUlqD6H-115" value="+ ENTERTAINMENT_VIDEO_GAMES: int = 15" style="text;html=1;strokeColor=none;fillColor=none;align=left;verticalAlign=top;spacingLeft=4;spacingRight=4;whiteSpace=wrap;overflow=hidden;rotatable=0;points=[[0,0.5],[1,0.5]];portConstraint=eastwest;" vertex="1" parent="PisStSjor8QuVtUlqD6H-94">
          <mxGeometry y="208" width="330" height="26" as="geometry" />
        </mxCell>
        <mxCell id="PisStSjor8QuVtUlqD6H-113" value="+ ENTERTAINMENT_BOARD_GAMES: int = 16" style="text;html=1;strokeColor=none;fillColor=none;align=left;verticalAlign=top;spacingLeft=4;spacingRight=4;whiteSpace=wrap;overflow=hidden;rotatable=0;points=[[0,0.5],[1,0.5]];portConstraint=eastwest;" vertex="1" parent="PisStSjor8QuVtUlqD6H-94">
          <mxGeometry y="234" width="330" height="26" as="geometry" />
        </mxCell>
        <mxCell id="PisStSjor8QuVtUlqD6H-97" value="+ SCIENCE_NATURE: int = 17" style="text;html=1;strokeColor=none;fillColor=none;align=left;verticalAlign=top;spacingLeft=4;spacingRight=4;whiteSpace=wrap;overflow=hidden;rotatable=0;points=[[0,0.5],[1,0.5]];portConstraint=eastwest;" vertex="1" parent="PisStSjor8QuVtUlqD6H-94">
          <mxGeometry y="260" width="330" height="26" as="geometry" />
        </mxCell>
        <mxCell id="PisStSjor8QuVtUlqD6H-103" value="+ SCIENCE_COMPUTERS: int = 18" style="text;html=1;strokeColor=none;fillColor=none;align=left;verticalAlign=top;spacingLeft=4;spacingRight=4;whiteSpace=wrap;overflow=hidden;rotatable=0;points=[[0,0.5],[1,0.5]];portConstraint=eastwest;" vertex="1" parent="PisStSjor8QuVtUlqD6H-94">
          <mxGeometry y="286" width="330" height="26" as="geometry" />
        </mxCell>
        <mxCell id="PisStSjor8QuVtUlqD6H-102" value="+ SCIENCE_MATHEMATICS: int = 19" style="text;html=1;strokeColor=none;fillColor=none;align=left;verticalAlign=top;spacingLeft=4;spacingRight=4;whiteSpace=wrap;overflow=hidden;rotatable=0;points=[[0,0.5],[1,0.5]];portConstraint=eastwest;" vertex="1" parent="PisStSjor8QuVtUlqD6H-94">
          <mxGeometry y="312" width="330" height="26" as="geometry" />
        </mxCell>
        <mxCell id="PisStSjor8QuVtUlqD6H-105" value="+ MYTHOLOGY: int = 20" style="text;html=1;strokeColor=none;fillColor=none;align=left;verticalAlign=top;spacingLeft=4;spacingRight=4;whiteSpace=wrap;overflow=hidden;rotatable=0;points=[[0,0.5],[1,0.5]];portConstraint=eastwest;" vertex="1" parent="PisStSjor8QuVtUlqD6H-94">
          <mxGeometry y="338" width="330" height="26" as="geometry" />
        </mxCell>
        <mxCell id="PisStSjor8QuVtUlqD6H-110" value="+ SPORTS: int = 21" style="text;html=1;strokeColor=none;fillColor=none;align=left;verticalAlign=top;spacingLeft=4;spacingRight=4;whiteSpace=wrap;overflow=hidden;rotatable=0;points=[[0,0.5],[1,0.5]];portConstraint=eastwest;" vertex="1" parent="PisStSjor8QuVtUlqD6H-94">
          <mxGeometry y="364" width="330" height="26" as="geometry" />
        </mxCell>
        <mxCell id="PisStSjor8QuVtUlqD6H-109" value="+ GEOGRAPHY: int = 22" style="text;html=1;strokeColor=none;fillColor=none;align=left;verticalAlign=top;spacingLeft=4;spacingRight=4;whiteSpace=wrap;overflow=hidden;rotatable=0;points=[[0,0.5],[1,0.5]];portConstraint=eastwest;" vertex="1" parent="PisStSjor8QuVtUlqD6H-94">
          <mxGeometry y="390" width="330" height="26" as="geometry" />
        </mxCell>
        <mxCell id="PisStSjor8QuVtUlqD6H-108" value="+ HISTORY: int = 23" style="text;html=1;strokeColor=none;fillColor=none;align=left;verticalAlign=top;spacingLeft=4;spacingRight=4;whiteSpace=wrap;overflow=hidden;rotatable=0;points=[[0,0.5],[1,0.5]];portConstraint=eastwest;" vertex="1" parent="PisStSjor8QuVtUlqD6H-94">
          <mxGeometry y="416" width="330" height="26" as="geometry" />
        </mxCell>
        <mxCell id="PisStSjor8QuVtUlqD6H-107" value="+ POLITICS: int = 24" style="text;html=1;strokeColor=none;fillColor=none;align=left;verticalAlign=top;spacingLeft=4;spacingRight=4;whiteSpace=wrap;overflow=hidden;rotatable=0;points=[[0,0.5],[1,0.5]];portConstraint=eastwest;" vertex="1" parent="PisStSjor8QuVtUlqD6H-94">
          <mxGeometry y="442" width="330" height="26" as="geometry" />
        </mxCell>
        <mxCell id="PisStSjor8QuVtUlqD6H-120" value="+ ART: int = 25" style="text;html=1;strokeColor=none;fillColor=none;align=left;verticalAlign=top;spacingLeft=4;spacingRight=4;whiteSpace=wrap;overflow=hidden;rotatable=0;points=[[0,0.5],[1,0.5]];portConstraint=eastwest;" vertex="1" parent="PisStSjor8QuVtUlqD6H-94">
          <mxGeometry y="468" width="330" height="26" as="geometry" />
        </mxCell>
        <mxCell id="PisStSjor8QuVtUlqD6H-124" value="+ CELEBRITIES: int = 26" style="text;html=1;strokeColor=none;fillColor=none;align=left;verticalAlign=top;spacingLeft=4;spacingRight=4;whiteSpace=wrap;overflow=hidden;rotatable=0;points=[[0,0.5],[1,0.5]];portConstraint=eastwest;" vertex="1" parent="PisStSjor8QuVtUlqD6H-94">
          <mxGeometry y="494" width="330" height="26" as="geometry" />
        </mxCell>
        <mxCell id="PisStSjor8QuVtUlqD6H-123" value="+ ANIMALS: int = 27" style="text;html=1;strokeColor=none;fillColor=none;align=left;verticalAlign=top;spacingLeft=4;spacingRight=4;whiteSpace=wrap;overflow=hidden;rotatable=0;points=[[0,0.5],[1,0.5]];portConstraint=eastwest;" vertex="1" parent="PisStSjor8QuVtUlqD6H-94">
          <mxGeometry y="520" width="330" height="26" as="geometry" />
        </mxCell>
        <mxCell id="PisStSjor8QuVtUlqD6H-122" value="+ VEHICLES: int = 28" style="text;html=1;strokeColor=none;fillColor=none;align=left;verticalAlign=top;spacingLeft=4;spacingRight=4;whiteSpace=wrap;overflow=hidden;rotatable=0;points=[[0,0.5],[1,0.5]];portConstraint=eastwest;" vertex="1" parent="PisStSjor8QuVtUlqD6H-94">
          <mxGeometry y="546" width="330" height="26" as="geometry" />
        </mxCell>
        <mxCell id="PisStSjor8QuVtUlqD6H-121" value="+ ENTERTAINMENT_COMICS: int = 29" style="text;html=1;strokeColor=none;fillColor=none;align=left;verticalAlign=top;spacingLeft=4;spacingRight=4;whiteSpace=wrap;overflow=hidden;rotatable=0;points=[[0,0.5],[1,0.5]];portConstraint=eastwest;" vertex="1" parent="PisStSjor8QuVtUlqD6H-94">
          <mxGeometry y="572" width="330" height="26" as="geometry" />
        </mxCell>
        <mxCell id="PisStSjor8QuVtUlqD6H-106" value="+ SCIENCE_GADGETS: int = 30" style="text;html=1;strokeColor=none;fillColor=none;align=left;verticalAlign=top;spacingLeft=4;spacingRight=4;whiteSpace=wrap;overflow=hidden;rotatable=0;points=[[0,0.5],[1,0.5]];portConstraint=eastwest;" vertex="1" parent="PisStSjor8QuVtUlqD6H-94">
          <mxGeometry y="598" width="330" height="26" as="geometry" />
        </mxCell>
        <mxCell id="PisStSjor8QuVtUlqD6H-126" value="+ ENTERTAINMENT_ANIME_MANGA: int = 31" style="text;html=1;strokeColor=none;fillColor=none;align=left;verticalAlign=top;spacingLeft=4;spacingRight=4;whiteSpace=wrap;overflow=hidden;rotatable=0;points=[[0,0.5],[1,0.5]];portConstraint=eastwest;" vertex="1" parent="PisStSjor8QuVtUlqD6H-94">
          <mxGeometry y="624" width="330" height="26" as="geometry" />
        </mxCell>
        <mxCell id="PisStSjor8QuVtUlqD6H-125" value="+ ENTERTAINMENT_CARTOON_ANIMATIONS: int = 32" style="text;html=1;strokeColor=none;fillColor=none;align=left;verticalAlign=top;spacingLeft=4;spacingRight=4;whiteSpace=wrap;overflow=hidden;rotatable=0;points=[[0,0.5],[1,0.5]];portConstraint=eastwest;" vertex="1" parent="PisStSjor8QuVtUlqD6H-94">
          <mxGeometry y="650" width="330" height="26" as="geometry" />
        </mxCell>
        <mxCell id="PisStSjor8QuVtUlqD6H-99" style="edgeStyle=orthogonalEdgeStyle;html=1;labelBackgroundColor=none;startFill=0;startSize=8;endArrow=diamondThin;endFill=0;endSize=16;fontFamily=Verdana;fontSize=12;elbow=vertical;entryX=0;entryY=0.5;entryDx=0;entryDy=0;exitX=0;exitY=0;exitDx=0;exitDy=0;" edge="1" parent="1" source="PisStSjor8QuVtUlqD6H-94" target="PisStSjor8QuVtUlqD6H-83">
          <mxGeometry relative="1" as="geometry">
            <mxPoint x="-90" y="960" as="sourcePoint" />
            <mxPoint x="20.000000000000114" y="850" as="targetPoint" />
            <Array as="points">
              <mxPoint x="-59.99999999999994" y="960" />
              <mxPoint x="-59.99999999999994" y="940" />
              <mxPoint x="40.000000000000114" y="940" />
              <mxPoint x="40.000000000000114" y="765" />
            </Array>
          </mxGeometry>
        </mxCell>
        <mxCell id="PisStSjor8QuVtUlqD6H-127" value="UserDatabase" style="swimlane;html=1;fontStyle=1;align=center;verticalAlign=top;childLayout=stackLayout;horizontal=1;startSize=26;horizontalStack=0;resizeParent=1;resizeLast=0;collapsible=1;marginBottom=0;swimlaneFillColor=#ffffff;rounded=0;shadow=0;comic=0;labelBackgroundColor=none;strokeWidth=1;fillColor=none;fontFamily=Verdana;fontSize=12" vertex="1" parent="1">
          <mxGeometry x="380" y="70" width="290" height="290" as="geometry" />
        </mxCell>
        <mxCell id="PisStSjor8QuVtUlqD6H-128" value="+ db: sqlite3*" style="text;html=1;strokeColor=none;fillColor=none;align=left;verticalAlign=top;spacingLeft=4;spacingRight=4;whiteSpace=wrap;overflow=hidden;rotatable=0;points=[[0,0.5],[1,0.5]];portConstraint=eastwest;" vertex="1" parent="PisStSjor8QuVtUlqD6H-127">
          <mxGeometry y="26" width="290" height="26" as="geometry" />
        </mxCell>
        <mxCell id="PisStSjor8QuVtUlqD6H-132" value="" style="line;html=1;strokeWidth=1;fillColor=none;align=left;verticalAlign=middle;spacingTop=-1;spacingLeft=3;spacingRight=3;rotatable=0;labelPosition=right;points=[];portConstraint=eastwest;" vertex="1" parent="PisStSjor8QuVtUlqD6H-127">
          <mxGeometry y="52" width="290" height="8" as="geometry" />
        </mxCell>
        <mxCell id="PisStSjor8QuVtUlqD6H-142" value="+&amp;nbsp;UserDatabase(string)" style="text;html=1;strokeColor=none;fillColor=none;align=left;verticalAlign=top;spacingLeft=4;spacingRight=4;whiteSpace=wrap;overflow=hidden;rotatable=0;points=[[0,0.5],[1,0.5]];portConstraint=eastwest;" vertex="1" parent="PisStSjor8QuVtUlqD6H-127">
          <mxGeometry y="60" width="290" height="26" as="geometry" />
        </mxCell>
        <mxCell id="PisStSjor8QuVtUlqD6H-133" value="+ open(string dbFilePath): void" style="text;html=1;strokeColor=none;fillColor=none;align=left;verticalAlign=top;spacingLeft=4;spacingRight=4;whiteSpace=wrap;overflow=hidden;rotatable=0;points=[[0,0.5],[1,0.5]];portConstraint=eastwest;" vertex="1" parent="PisStSjor8QuVtUlqD6H-127">
          <mxGeometry y="86" width="290" height="24" as="geometry" />
        </mxCell>
        <mxCell id="PisStSjor8QuVtUlqD6H-134" value="+ close(): void" style="text;html=1;strokeColor=none;fillColor=none;align=left;verticalAlign=top;spacingLeft=4;spacingRight=4;whiteSpace=wrap;overflow=hidden;rotatable=0;points=[[0,0.5],[1,0.5]];portConstraint=eastwest;" vertex="1" parent="PisStSjor8QuVtUlqD6H-127">
          <mxGeometry y="110" width="290" height="26" as="geometry" />
        </mxCell>
        <mxCell id="PisStSjor8QuVtUlqD6H-145" value="+ getUserByUsenameAndPass(string, string): User" style="text;html=1;strokeColor=none;fillColor=none;align=left;verticalAlign=top;spacingLeft=4;spacingRight=4;whiteSpace=wrap;overflow=hidden;rotatable=0;points=[[0,0.5],[1,0.5]];portConstraint=eastwest;" vertex="1" parent="PisStSjor8QuVtUlqD6H-127">
          <mxGeometry y="136" width="290" height="26" as="geometry" />
        </mxCell>
        <mxCell id="PisStSjor8QuVtUlqD6H-157" value="+ getUserByID(int): User" style="text;html=1;strokeColor=none;fillColor=none;align=left;verticalAlign=top;spacingLeft=4;spacingRight=4;whiteSpace=wrap;overflow=hidden;rotatable=0;points=[[0,0.5],[1,0.5]];portConstraint=eastwest;" vertex="1" parent="PisStSjor8QuVtUlqD6H-127">
          <mxGeometry y="162" width="290" height="26" as="geometry" />
        </mxCell>
        <mxCell id="PisStSjor8QuVtUlqD6H-158" value="+ updateUserStats(int id, UserStatistics): void" style="text;html=1;strokeColor=none;fillColor=none;align=left;verticalAlign=top;spacingLeft=4;spacingRight=4;whiteSpace=wrap;overflow=hidden;rotatable=0;points=[[0,0.5],[1,0.5]];portConstraint=eastwest;" vertex="1" parent="PisStSjor8QuVtUlqD6H-127">
          <mxGeometry y="188" width="290" height="32" as="geometry" />
        </mxCell>
        <mxCell id="PisStSjor8QuVtUlqD6H-160" value="+ deleteUser(int id): void" style="text;html=1;strokeColor=none;fillColor=none;align=left;verticalAlign=top;spacingLeft=4;spacingRight=4;whiteSpace=wrap;overflow=hidden;rotatable=0;points=[[0,0.5],[1,0.5]];portConstraint=eastwest;" vertex="1" parent="PisStSjor8QuVtUlqD6H-127">
          <mxGeometry y="220" width="290" height="32" as="geometry" />
        </mxCell>
        <mxCell id="PisStSjor8QuVtUlqD6H-159" value="+&amp;nbsp; &amp;nbsp; &amp;nbsp; &amp;nbsp; &amp;nbsp; &amp;nbsp;etc.......&amp;nbsp; (database functions)" style="text;html=1;strokeColor=none;fillColor=none;align=left;verticalAlign=top;spacingLeft=4;spacingRight=4;whiteSpace=wrap;overflow=hidden;rotatable=0;points=[[0,0.5],[1,0.5]];portConstraint=eastwest;" vertex="1" parent="PisStSjor8QuVtUlqD6H-127">
          <mxGeometry y="252" width="290" height="32" as="geometry" />
        </mxCell>
        <mxCell id="PisStSjor8QuVtUlqD6H-143" style="edgeStyle=orthogonalEdgeStyle;rounded=0;orthogonalLoop=1;jettySize=auto;html=1;" edge="1" parent="1" source="PisStSjor8QuVtUlqD6H-144">
          <mxGeometry relative="1" as="geometry">
            <mxPoint x="370" y="144" as="targetPoint" />
            <Array as="points">
              <mxPoint x="350" y="144" />
              <mxPoint x="350" y="144" />
            </Array>
          </mxGeometry>
        </mxCell>
        <mxCell id="PisStSjor8QuVtUlqD6H-144" value="constructor calls open()" style="text;html=1;strokeColor=none;fillColor=default;align=center;verticalAlign=middle;whiteSpace=wrap;rounded=0;" vertex="1" parent="1">
          <mxGeometry x="270" y="130" width="70" height="30" as="geometry" />
        </mxCell>
        <mxCell id="PisStSjor8QuVtUlqD6H-146" style="html=1;labelBackgroundColor=none;startFill=0;startSize=8;endArrow=diamondThin;endFill=0;endSize=16;fontFamily=Verdana;fontSize=12;edgeStyle=orthogonalEdgeStyle;rounded=1;exitX=1;exitY=0;exitDx=0;exitDy=0;entryX=0;entryY=0.5;entryDx=0;entryDy=0;" edge="1" parent="1" source="PisStSjor8QuVtUlqD6H-13" target="PisStSjor8QuVtUlqD6H-145">
          <mxGeometry relative="1" as="geometry">
            <mxPoint x="290" y="250" as="sourcePoint" />
            <mxPoint x="460" y="300" as="targetPoint" />
            <Array as="points">
              <mxPoint x="260" y="70" />
              <mxPoint x="260" y="219" />
            </Array>
          </mxGeometry>
        </mxCell>
        <mxCell id="PisStSjor8QuVtUlqD6H-147" value="UserNotFoundException" style="swimlane;html=1;fontStyle=1;align=center;verticalAlign=top;childLayout=stackLayout;horizontal=1;startSize=26;horizontalStack=0;resizeParent=1;resizeLast=0;collapsible=1;marginBottom=0;swimlaneFillColor=#ffffff;rounded=0;shadow=0;comic=0;labelBackgroundColor=none;strokeWidth=1;fillColor=none;fontFamily=Verdana;fontSize=12" vertex="1" parent="1">
          <mxGeometry x="450" y="470" width="190" height="110" as="geometry" />
        </mxCell>
        <mxCell id="PisStSjor8QuVtUlqD6H-148" value="+ message: string" style="text;html=1;strokeColor=none;fillColor=none;align=left;verticalAlign=top;spacingLeft=4;spacingRight=4;whiteSpace=wrap;overflow=hidden;rotatable=0;points=[[0,0.5],[1,0.5]];portConstraint=eastwest;" vertex="1" parent="PisStSjor8QuVtUlqD6H-147">
          <mxGeometry y="26" width="190" height="26" as="geometry" />
        </mxCell>
        <mxCell id="PisStSjor8QuVtUlqD6H-152" value="" style="line;html=1;strokeWidth=1;fillColor=none;align=left;verticalAlign=middle;spacingTop=-1;spacingLeft=3;spacingRight=3;rotatable=0;labelPosition=right;points=[];portConstraint=eastwest;" vertex="1" parent="PisStSjor8QuVtUlqD6H-147">
          <mxGeometry y="52" width="190" height="8" as="geometry" />
        </mxCell>
        <mxCell id="PisStSjor8QuVtUlqD6H-153" value="+ Constructor" style="text;html=1;strokeColor=none;fillColor=none;align=left;verticalAlign=top;spacingLeft=4;spacingRight=4;whiteSpace=wrap;overflow=hidden;rotatable=0;points=[[0,0.5],[1,0.5]];portConstraint=eastwest;" vertex="1" parent="PisStSjor8QuVtUlqD6H-147">
          <mxGeometry y="60" width="190" height="24" as="geometry" />
        </mxCell>
        <mxCell id="PisStSjor8QuVtUlqD6H-154" value="+ what(): const char*" style="text;html=1;strokeColor=none;fillColor=none;align=left;verticalAlign=top;spacingLeft=4;spacingRight=4;whiteSpace=wrap;overflow=hidden;rotatable=0;points=[[0,0.5],[1,0.5]];portConstraint=eastwest;" vertex="1" parent="PisStSjor8QuVtUlqD6H-147">
          <mxGeometry y="84" width="190" height="26" as="geometry" />
        </mxCell>
        <mxCell id="PisStSjor8QuVtUlqD6H-155" value="&lt;font style=&quot;font-size: 17px;&quot;&gt;std::exception&lt;/font&gt;" style="text;html=1;strokeColor=default;fillColor=none;align=center;verticalAlign=middle;spacingLeft=4;spacingRight=4;whiteSpace=wrap;overflow=hidden;rotatable=0;points=[[0,0.5],[1,0.5]];portConstraint=eastwest;fontSize=17;labelBackgroundColor=default;perimeterSpacing=0;strokeWidth=1;rounded=1;glass=0;shadow=0;" vertex="1" parent="1">
          <mxGeometry x="520" y="390" width="130" height="36" as="geometry" />
        </mxCell>
        <mxCell id="PisStSjor8QuVtUlqD6H-156" style="html=1;labelBackgroundColor=none;startFill=0;startSize=8;endArrow=open;endFill=0;endSize=10;fontFamily=Verdana;fontSize=12;dashed=1;rounded=1;entryX=0.75;entryY=0;entryDx=0;entryDy=0;exitX=0.5;exitY=1.039;exitDx=0;exitDy=0;exitPerimeter=0;" edge="1" parent="1" source="PisStSjor8QuVtUlqD6H-155" target="PisStSjor8QuVtUlqD6H-147">
          <mxGeometry relative="1" as="geometry">
            <mxPoint x="670" y="340" as="sourcePoint" />
            <mxPoint x="880" y="410" as="targetPoint" />
          </mxGeometry>
        </mxCell>
        <mxCell id="PisStSjor8QuVtUlqD6H-163" value="" style="endArrow=diamondThin;html=1;endFill=0;rounded=1;edgeStyle=orthogonalEdgeStyle;targetPerimeterSpacing=0;endSize=16;exitX=0;exitY=0;exitDx=0;exitDy=0;entryX=0;entryY=1;entryDx=0;entryDy=0;" edge="1" parent="1" source="PisStSjor8QuVtUlqD6H-147" target="PisStSjor8QuVtUlqD6H-127">
          <mxGeometry relative="1" as="geometry">
            <mxPoint x="290" y="390" as="sourcePoint" />
            <mxPoint x="360" y="340" as="targetPoint" />
          </mxGeometry>
        </mxCell>
        <mxCell id="PisStSjor8QuVtUlqD6H-164" value="&lt;font style=&quot;font-size: 10px;&quot;&gt;Might throw&lt;br&gt;&lt;/font&gt;" style="edgeLabel;resizable=0;html=1;align=center;verticalAlign=middle;rotation=15;fontSize=10;" connectable="0" vertex="1" parent="PisStSjor8QuVtUlqD6H-163">
          <mxGeometry relative="1" as="geometry">
            <mxPoint x="-5" y="-17" as="offset" />
          </mxGeometry>
        </mxCell>
        <mxCell id="PisStSjor8QuVtUlqD6H-165" style="edgeStyle=orthogonalEdgeStyle;html=1;labelBackgroundColor=none;startFill=0;startSize=8;endArrow=diamondThin;endFill=0;endSize=16;fontFamily=Verdana;fontSize=12;elbow=vertical;rounded=1;exitX=1;exitY=0;exitDx=0;exitDy=0;entryX=0;entryY=0.5;entryDx=0;entryDy=0;" edge="1" parent="1" source="PisStSjor8QuVtUlqD6H-127" target="PisStSjor8QuVtUlqD6H-33">
          <mxGeometry relative="1" as="geometry">
            <mxPoint x="660" y="-19.997142857142762" as="sourcePoint" />
            <mxPoint x="820" y="-20" as="targetPoint" />
            <Array as="points">
              <mxPoint x="735" y="70" />
              <mxPoint x="735" y="135" />
            </Array>
          </mxGeometry>
        </mxCell>
        <mxCell id="PisStSjor8QuVtUlqD6H-166" style="html=1;labelBackgroundColor=none;startFill=0;startSize=8;endArrow=diamondThin;endFill=0;endSize=16;fontFamily=Verdana;fontSize=12;edgeStyle=orthogonalEdgeStyle;rounded=1;exitX=1;exitY=0;exitDx=0;exitDy=0;entryX=0;entryY=0.5;entryDx=0;entryDy=0;" edge="1" parent="1" source="PisStSjor8QuVtUlqD6H-13" target="PisStSjor8QuVtUlqD6H-157">
          <mxGeometry relative="1" as="geometry">
            <mxPoint x="230" y="70" as="sourcePoint" />
            <mxPoint x="350" y="280" as="targetPoint" />
            <Array as="points">
              <mxPoint x="260" y="70" />
              <mxPoint x="260" y="245" />
            </Array>
          </mxGeometry>
        </mxCell>
        <mxCell id="PisStSjor8QuVtUlqD6H-167" style="edgeStyle=orthogonalEdgeStyle;html=1;labelBackgroundColor=none;startFill=0;startSize=8;endArrow=diamondThin;endFill=0;endSize=16;fontFamily=Verdana;fontSize=12;elbow=vertical;rounded=1;exitX=1;exitY=0;exitDx=0;exitDy=0;entryX=0;entryY=0.5;entryDx=0;entryDy=0;" edge="1" parent="1" source="PisStSjor8QuVtUlqD6H-21" target="PisStSjor8QuVtUlqD6H-158">
          <mxGeometry relative="1" as="geometry">
            <mxPoint x="260" y="320.00285714285724" as="sourcePoint" />
            <mxPoint x="420" y="320" as="targetPoint" />
            <Array as="points">
              <mxPoint x="260" y="290" />
              <mxPoint x="260" y="274" />
            </Array>
          </mxGeometry>
        </mxCell>
        <mxCell id="PisStSjor8QuVtUlqD6H-168" value="TriviaProtocolMessage" style="swimlane;html=1;fontStyle=1;align=center;verticalAlign=top;childLayout=stackLayout;horizontal=1;startSize=26;horizontalStack=0;resizeParent=1;resizeLast=0;collapsible=1;marginBottom=0;swimlaneFillColor=#ffffff;rounded=0;shadow=0;comic=0;labelBackgroundColor=none;strokeWidth=1;fillColor=none;fontFamily=Verdana;fontSize=12" vertex="1" parent="1">
          <mxGeometry x="800" y="390" width="190" height="60" as="geometry" />
        </mxCell>
        <mxCell id="PisStSjor8QuVtUlqD6H-169" value="WILL BE DECIDED LATER" style="text;html=1;strokeColor=none;fillColor=none;align=center;verticalAlign=top;spacingLeft=4;spacingRight=4;whiteSpace=wrap;overflow=hidden;rotatable=0;points=[[0,0.5],[1,0.5]];portConstraint=eastwest;" vertex="1" parent="PisStSjor8QuVtUlqD6H-168">
          <mxGeometry y="26" width="190" height="24" as="geometry" />
        </mxCell>
        <mxCell id="PisStSjor8QuVtUlqD6H-176" style="edgeStyle=orthogonalEdgeStyle;html=1;labelBackgroundColor=none;startFill=0;startSize=8;endArrow=diamondThin;endFill=0;endSize=16;fontFamily=Verdana;fontSize=12;elbow=vertical;exitX=0;exitY=0;exitDx=0;exitDy=0;entryX=0;entryY=0.5;entryDx=0;entryDy=0;strokeColor=default;rounded=1;" edge="1" parent="1" source="PisStSjor8QuVtUlqD6H-168" target="PisStSjor8QuVtUlqD6H-135">
          <mxGeometry relative="1" as="geometry">
            <mxPoint x="720" y="380.00285714285724" as="sourcePoint" />
            <mxPoint x="880" y="380" as="targetPoint" />
            <Array as="points">
              <mxPoint x="750" y="390" />
              <mxPoint x="750" y="315" />
            </Array>
          </mxGeometry>
        </mxCell>
        <mxCell id="PisStSjor8QuVtUlqD6H-177" style="html=1;labelBackgroundColor=none;startFill=0;startSize=8;endArrow=open;endFill=0;endSize=16;fontFamily=Verdana;fontSize=12;dashed=1;rounded=0;exitX=0.25;exitY=1;exitDx=0;exitDy=0;entryX=0;entryY=0;entryDx=0;entryDy=0;" edge="1" parent="1" source="PisStSjor8QuVtUlqD6H-168" target="PisStSjor8QuVtUlqD6H-180">
          <mxGeometry relative="1" as="geometry">
            <mxPoint x="850" y="490" as="sourcePoint" />
            <mxPoint x="790" y="560" as="targetPoint" />
          </mxGeometry>
        </mxCell>
        <mxCell id="PisStSjor8QuVtUlqD6H-178" style="html=1;labelBackgroundColor=none;startFill=0;startSize=8;endArrow=open;endFill=0;endSize=16;fontFamily=Verdana;fontSize=12;dashed=1;rounded=0;exitX=0.5;exitY=1;exitDx=0;exitDy=0;entryX=0.5;entryY=0;entryDx=0;entryDy=0;" edge="1" parent="1" source="PisStSjor8QuVtUlqD6H-168" target="PisStSjor8QuVtUlqD6H-180">
          <mxGeometry relative="1" as="geometry">
            <mxPoint x="1030" y="590" as="sourcePoint" />
            <mxPoint x="895" y="560" as="targetPoint" />
          </mxGeometry>
        </mxCell>
        <mxCell id="PisStSjor8QuVtUlqD6H-179" style="html=1;labelBackgroundColor=none;startFill=0;startSize=8;endArrow=open;endFill=0;endSize=16;fontFamily=Verdana;fontSize=12;dashed=1;rounded=0;exitX=0.75;exitY=1;exitDx=0;exitDy=0;entryX=1;entryY=0;entryDx=0;entryDy=0;" edge="1" parent="1" source="PisStSjor8QuVtUlqD6H-168" target="PisStSjor8QuVtUlqD6H-180">
          <mxGeometry relative="1" as="geometry">
            <mxPoint x="980" y="500" as="sourcePoint" />
            <mxPoint x="1000" y="560" as="targetPoint" />
          </mxGeometry>
        </mxCell>
        <mxCell id="PisStSjor8QuVtUlqD6H-180" value="some TriviaProtocolMessage subclasses to represent the different message types, including server and client messages" style="rounded=1;whiteSpace=wrap;html=1;" vertex="1" parent="1">
          <mxGeometry x="770" y="567" width="250" height="73" as="geometry" />
        </mxCell>
        <mxCell id="PisStSjor8QuVtUlqD6H-181" value="&lt;h1&gt;Trivia Questions API&lt;/h1&gt;&lt;div&gt;this entire section of the UML is based on the trivia question database that we have decided to use. we will be using the Open Trivia Databse (https://opentdb.com), thus the TriviaQuestion class is designed to exactly represent the format returned by the API.&lt;/div&gt;" style="text;html=1;strokeColor=none;fillColor=none;spacing=5;spacingTop=-20;whiteSpace=wrap;overflow=hidden;rounded=0;" vertex="1" parent="1">
          <mxGeometry x="-330" y="671" width="310" height="139" as="geometry" />
        </mxCell>
        <mxCell id="PisStSjor8QuVtUlqD6H-182" value="GameRoom" style="swimlane;html=1;fontStyle=1;align=center;verticalAlign=top;childLayout=stackLayout;horizontal=1;startSize=26;horizontalStack=0;resizeParent=1;resizeLast=0;collapsible=1;marginBottom=0;swimlaneFillColor=#ffffff;rounded=0;shadow=0;comic=0;labelBackgroundColor=none;strokeWidth=1;fillColor=none;fontFamily=Verdana;fontSize=12" vertex="1" parent="1">
          <mxGeometry x="460" y="700" width="200" height="190" as="geometry" />
        </mxCell>
        <mxCell id="PisStSjor8QuVtUlqD6H-183" value="+ active: bool" style="text;html=1;strokeColor=none;fillColor=none;align=left;verticalAlign=top;spacingLeft=4;spacingRight=4;whiteSpace=wrap;overflow=hidden;rotatable=0;points=[[0,0.5],[1,0.5]];portConstraint=eastwest;" vertex="1" parent="PisStSjor8QuVtUlqD6H-182">
          <mxGeometry y="26" width="200" height="26" as="geometry" />
        </mxCell>
        <mxCell id="PisStSjor8QuVtUlqD6H-184" value="+ players: map&amp;lt;User, int&amp;gt;" style="text;html=1;strokeColor=none;fillColor=none;align=left;verticalAlign=top;spacingLeft=4;spacingRight=4;whiteSpace=wrap;overflow=hidden;rotatable=0;points=[[0,0.5],[1,0.5]];portConstraint=eastwest;" vertex="1" parent="PisStSjor8QuVtUlqD6H-182">
          <mxGeometry y="52" width="200" height="26" as="geometry" />
        </mxCell>
        <mxCell id="PisStSjor8QuVtUlqD6H-185" value="+ questions: list&amp;lt;TriviaQuestion&amp;gt;" style="text;html=1;strokeColor=none;fillColor=none;align=left;verticalAlign=top;spacingLeft=4;spacingRight=4;whiteSpace=wrap;overflow=hidden;rotatable=0;points=[[0,0.5],[1,0.5]];portConstraint=eastwest;" vertex="1" parent="PisStSjor8QuVtUlqD6H-182">
          <mxGeometry y="78" width="200" height="26" as="geometry" />
        </mxCell>
        <mxCell id="PisStSjor8QuVtUlqD6H-186" value="+ activeQuestion: int" style="text;html=1;strokeColor=none;fillColor=none;align=left;verticalAlign=top;spacingLeft=4;spacingRight=4;whiteSpace=wrap;overflow=hidden;rotatable=0;points=[[0,0.5],[1,0.5]];portConstraint=eastwest;" vertex="1" parent="PisStSjor8QuVtUlqD6H-182">
          <mxGeometry y="104" width="200" height="26" as="geometry" />
        </mxCell>
        <mxCell id="PisStSjor8QuVtUlqD6H-187" value="" style="line;html=1;strokeWidth=1;fillColor=none;align=left;verticalAlign=middle;spacingTop=-1;spacingLeft=3;spacingRight=3;rotatable=0;labelPosition=right;points=[];portConstraint=eastwest;" vertex="1" parent="PisStSjor8QuVtUlqD6H-182">
          <mxGeometry y="130" width="200" height="8" as="geometry" />
        </mxCell>
        <mxCell id="PisStSjor8QuVtUlqD6H-188" value="+ Ctor &amp;amp; Dtor" style="text;html=1;strokeColor=none;fillColor=none;align=left;verticalAlign=top;spacingLeft=4;spacingRight=4;whiteSpace=wrap;overflow=hidden;rotatable=0;points=[[0,0.5],[1,0.5]];portConstraint=eastwest;" vertex="1" parent="PisStSjor8QuVtUlqD6H-182">
          <mxGeometry y="138" width="200" height="24" as="geometry" />
        </mxCell>
        <mxCell id="PisStSjor8QuVtUlqD6H-189" value="+ more methods to be decided later" style="text;html=1;strokeColor=none;fillColor=none;align=left;verticalAlign=top;spacingLeft=4;spacingRight=4;whiteSpace=wrap;overflow=hidden;rotatable=0;points=[[0,0.5],[1,0.5]];portConstraint=eastwest;" vertex="1" parent="PisStSjor8QuVtUlqD6H-182">
          <mxGeometry y="162" width="200" height="26" as="geometry" />
        </mxCell>
        <mxCell id="PisStSjor8QuVtUlqD6H-190" value="" style="shape=umlActor;verticalLabelPosition=bottom;verticalAlign=top;html=1;outlineConnect=0;" vertex="1" parent="1">
          <mxGeometry x="470" y="640" width="30" height="60" as="geometry" />
        </mxCell>
        <mxCell id="PisStSjor8QuVtUlqD6H-192" style="edgeStyle=orthogonalEdgeStyle;rounded=0;orthogonalLoop=1;jettySize=auto;html=1;" edge="1" parent="1" source="PisStSjor8QuVtUlqD6H-193">
          <mxGeometry relative="1" as="geometry">
            <mxPoint x="790" y="161" as="targetPoint" />
            <Array as="points">
              <mxPoint x="780" y="161" />
              <mxPoint x="780" y="161" />
            </Array>
          </mxGeometry>
        </mxCell>
        <mxCell id="PisStSjor8QuVtUlqD6H-193" value="user ID&lt;br&gt;to Socket" style="text;html=1;strokeColor=none;fillColor=default;align=center;verticalAlign=middle;whiteSpace=wrap;rounded=0;" vertex="1" parent="1">
          <mxGeometry x="700" y="150" width="60" height="30" as="geometry" />
        </mxCell>
        <mxCell id="PisStSjor8QuVtUlqD6H-195" style="edgeStyle=orthogonalEdgeStyle;html=1;labelBackgroundColor=none;startFill=0;startSize=8;endArrow=diamondThin;endFill=0;endSize=16;fontFamily=Verdana;fontSize=12;elbow=vertical;rounded=1;exitX=1;exitY=0;exitDx=0;exitDy=0;entryX=0;entryY=0.5;entryDx=0;entryDy=0;" edge="1" parent="1" source="PisStSjor8QuVtUlqD6H-182" target="PisStSjor8QuVtUlqD6H-36">
          <mxGeometry relative="1" as="geometry">
            <mxPoint x="780" y="720.0028571428572" as="sourcePoint" />
            <mxPoint x="710" y="450" as="targetPoint" />
            <Array as="points">
              <mxPoint x="690" y="700" />
              <mxPoint x="690" y="187" />
            </Array>
          </mxGeometry>
        </mxCell>
        <mxCell id="PisStSjor8QuVtUlqD6H-196" value="" style="shape=umlActor;verticalLabelPosition=bottom;verticalAlign=top;html=1;outlineConnect=0;" vertex="1" parent="1">
          <mxGeometry x="520" y="640" width="30" height="60" as="geometry" />
        </mxCell>
        <mxCell id="PisStSjor8QuVtUlqD6H-198" value="" style="shape=umlActor;verticalLabelPosition=bottom;verticalAlign=top;html=1;outlineConnect=0;" vertex="1" parent="1">
          <mxGeometry x="570" y="640" width="30" height="60" as="geometry" />
        </mxCell>
        <mxCell id="PisStSjor8QuVtUlqD6H-199" value="" style="shape=umlActor;verticalLabelPosition=bottom;verticalAlign=top;html=1;outlineConnect=0;" vertex="1" parent="1">
          <mxGeometry x="620" y="640" width="30" height="60" as="geometry" />
        </mxCell>
        <mxCell id="PisStSjor8QuVtUlqD6H-201" style="edgeStyle=orthogonalEdgeStyle;html=1;labelBackgroundColor=none;startFill=0;startSize=8;endArrow=diamondThin;endFill=0;endSize=16;fontFamily=Verdana;fontSize=12;elbow=vertical;rounded=1;entryX=0;entryY=0.5;entryDx=0;entryDy=0;exitX=1;exitY=0;exitDx=0;exitDy=0;" edge="1" parent="1" source="PisStSjor8QuVtUlqD6H-46" target="PisStSjor8QuVtUlqD6H-185">
          <mxGeometry relative="1" as="geometry">
            <mxPoint x="320" y="750.0028571428572" as="sourcePoint" />
            <mxPoint x="480" y="750" as="targetPoint" />
            <Array as="points">
              <mxPoint x="330" y="700" />
              <mxPoint x="330" y="791" />
            </Array>
          </mxGeometry>
        </mxCell>
        <mxCell id="PisStSjor8QuVtUlqD6H-202" style="edgeStyle=orthogonalEdgeStyle;rounded=0;orthogonalLoop=1;jettySize=auto;html=1;" edge="1" parent="1" source="PisStSjor8QuVtUlqD6H-203">
          <mxGeometry relative="1" as="geometry">
            <mxPoint x="450" y="765" as="targetPoint" />
            <Array as="points">
              <mxPoint x="440" y="765" />
              <mxPoint x="440" y="765" />
            </Array>
          </mxGeometry>
        </mxCell>
        <mxCell id="PisStSjor8QuVtUlqD6H-203" value="User with current score" style="text;html=1;strokeColor=none;fillColor=default;align=center;verticalAlign=middle;whiteSpace=wrap;rounded=0;" vertex="1" parent="1">
          <mxGeometry x="340" y="750" width="80" height="30" as="geometry" />
        </mxCell>
        <mxCell id="PisStSjor8QuVtUlqD6H-204" value="This class most likely will require a multithreaded approach" style="text;html=1;strokeColor=none;fillColor=none;align=center;verticalAlign=middle;whiteSpace=wrap;rounded=0;" vertex="1" parent="1">
          <mxGeometry x="680" y="720" width="130" height="60" as="geometry" />
        </mxCell>
      </root>
    </mxGraphModel>
  </diagram>
</mxfile>
